<?xml version="1.0" encoding="utf-8"?>
<!-- Generator: Adobe Illustrator 22.0.0, SVG Export Plug-In . SVG Version: 6.00 Build 0)  -->
<svg version="1.1" id="Laag_1" xmlns="http://www.w3.org/2000/svg" xmlns:xlink="http://www.w3.org/1999/xlink" x="0px" y="0px"
	 viewBox="0 0 180 60.5" style="enable-background:new 0 0 180 60.5;" xml:space="preserve">
<style type="text/css">
	.st0{fill:#FFFFFF;}
</style>
<path class="st0" d="M31.6,43.3c0.8,1.4,1.3,2.5,1.3,3.2c0,1.5-1.4,2.2-4.2,2.2c-3.1,0-5.5-1.1-6.9-3.4l-3.6-6
	C16.8,37.1,15.4,36,14,36c-2.1,0-4.3,1.8-4.3,7c0,3.8-0.7,5.7-4.6,5.7c-3.8,0-4.9-1.5-4.9-4.8v-39c0-2.9,1.3-4.5,4.8-4.5
	c3.2,0,4.8,1.4,4.8,4.5c0,15-0.1,16.9,2.5,16.9c0.8,0,1.8-0.3,4.3-2.8c0,0,0.7-0.8,2.2-2.5c1.5-1.5,2.5-2.4,2.9-2.5
	c1.1-0.7,2.8-1,5-1h1c2.1,0,3.1,0.7,3.1,2c0,0.7-0.4,1.5-1.4,2.7l-4.9,5.6c-1.3,1.5-1.5,3.1-1.5,3.6c0,1.3,0.3,2.2,0.7,2.9
	L31.6,43.3z"/>
<path class="st0" d="M37.7,12.6h2.5c2.4,0,3.8,1.5,4.5,4.5L47.5,30c0.7,3.5,1.7,4.2,2.8,4.2c1.4,0,2.2-2.2,2.7-4.3l2.9-13.6
	c0.6-2.4,2.2-3.6,4.9-3.6h2.4c1.7,0,3.1,1.1,3.1,2.5c0,1-0.1,1.7-0.3,2.2l-11,33.6c-2.8,8.7-7.3,9.9-11.3,9.9h-3.5
	c-2.2,0-3.8-1.4-3.8-3.8c0-2.2,1.5-3.4,4.1-3.9c2.7-0.6,4.1-2.4,4.1-4.3c0-2.4-8.8-28.4-9.2-29.9C33.5,13.3,35.8,12.6,37.7,12.6z"/>
<path class="st0" d="M102.1,23v21.8c0,2.7-2,3.9-4.3,3.9h-1.5c-2.2,0-3.9-1.3-3.9-3.9V29.8c0-6.4-2.1-9.6-6-9.6
	c-4.2,0-6.2,3.4-6.2,10.1v14.7c0,2.7-2,3.9-4.3,3.9h-1.5c-2.4,0-3.9-1.4-3.9-4.3V16.8c0-2.7,1.5-4.1,4.9-4.1c2.8,0,5,1,6.9,1
	c3.4,0,4.3-1.8,9.4-1.8C97.9,11.9,102.1,14.9,102.1,23z"/>
<path class="st0" d="M121,49.7c-5.9,0-15.1-3.5-15.1-18.5s8.9-18.6,15-18.6c4.2,0,5.6,1.1,8.1,1.1c2.1,0,2.7-2.1,2.8-5l0.1-3.4
	c0.1-2.5,1-4.3,3.1-4.3h2.8c2.2,0,3.4,1.8,3.4,5.5v37.9c0,2.9-1.4,4.5-4.6,4.5c-3.5,0-4.2-1.1-6.4-1.1
	C126.6,47.7,126.2,49.7,121,49.7z M123.2,43c5.9,0,8.5-5.2,8.5-12.4c0-7.8-3.4-11.3-8.1-11.3c-2.8,0-8.4,1.5-8.4,11.9
	C115.3,39.8,119.3,43,123.2,43z"/>
<path class="st0" d="M175.8,13.3c-3.5,0-4.2,1.1-6.4,1.1c-3.5,0-3.9-2-9.1-2c-5.9,0-15.1,3.5-15.1,18.5c0,0,0,0.1,0,0.1
	c0,0,0,0.1,0,0.1c0,15,9.2,18.5,15.1,18.5c5.2,0,5.6-2,9.1-2c2.2,0,2.9,1.1,6.4,1.1c3.2,0,3.9-1.5,3.9-4.5V31.1V17.8
	C179.7,14.9,179,13.3,175.8,13.3z M162.5,43c-3.9,0-8-3.2-8-11.9c0,0,0,0,0,0c0,0,0,0,0,0c0-8.7,4.1-11.9,8-11.9
	c5.7,0,8.4,4.9,8.5,11.9C170.9,38.1,168.2,43,162.5,43z"/>
</svg>
